<?xml version="1.0" encoding="utf-8"?>
<!-- Generator: Adobe Illustrator 17.0.0, SVG Export Plug-In . SVG Version: 6.00 Build 0)  -->
<!DOCTYPE svg PUBLIC "-//W3C//DTD SVG 1.1//EN" "http://www.w3.org/Graphics/SVG/1.1/DTD/svg11.dtd">
<svg version="1.1" id="Ebene_1" xmlns="http://www.w3.org/2000/svg" xmlns:xlink="http://www.w3.org/1999/xlink" x="0px" y="0px"
	 width="1760px" height="1544.999px" viewBox="0 0 1760 1544.999" enable-background="new 0 0 1760 1544.999" xml:space="preserve">
<g id="x9KXgM_1_">
	<g>
		<path d="M880.001,1271c-224.498,0-448.997,0.059-673.495-0.069c-30.755-0.017-60.228-6.352-87.235-21.663
			c-40.475-22.945-63.312-58.551-72.021-103.474c-2.708-13.97-4.058-28.426-4.076-42.662
			c-0.257-198.331-0.236-396.664-0.119-594.995c0.022-37.863,8.668-73.615,28.727-106.106c23.711-38.407,58.041-63.463,99.901-79.05
			c22.479-8.37,46.074-11.646,69.453-16.03c34.829-6.53,69.899-12.105,104.338-20.305c41.281-9.83,78.854-28.266,111.513-55.876
			c25.449-21.516,45.06-47.473,59.121-77.695c24.986-53.703,66.919-86.697,124.003-101.042c24.677-6.201,49.787-8.967,75.188-9.006
			c55.499-0.085,111.003-0.415,166.497,0.104c40.229,0.376,79.683,5.963,116.763,22.847c39.695,18.075,67.244,47.526,82.528,88.479
			c20.788,55.702,61.202,91.091,115.99,111.454c30.137,11.201,61.48,17.056,93.249,21.108c37.324,4.76,74.622,9.718,111.933,14.58
			c39.458,5.142,78.915,10.282,118.375,15.404c27.881,3.619,55.905,6.372,82.426,16.822
			c62.133,24.481,98.881,69.654,109.878,135.381c2.433,14.541,3.399,29.486,3.415,44.247c0.218,195.498,0.148,390.997,0.142,586.495
			c-0.001,29.785-4.132,58.756-17.317,85.877c-21.209,43.63-56.439,69.618-103.168,79.883c-15.64,3.436-31.991,5.052-48.021,5.075
			C1325.327,1271.103,1102.664,1271,880.001,1271z M991.74,461c-2.478,0-4.614,0-6.749,0c-245.492,0-490.984-0.007-736.476,0.042
			c-6.314,0.001-12.688,0.186-18.932,1.035c-28.809,3.92-51.273,17.648-65.678,43.428c-10.193,18.243-13.662,38.173-13.675,58.696
			c-0.114,171.494-0.158,342.989,0.024,514.483c0.032,29.814,12.538,53.774,37.142,70.935c18.595,12.97,39.748,17.221,62.022,17.221
			c270.158-0.004,540.316-0.001,810.474-0.017c4.661,0,9.327-0.12,13.983-0.342c21.958-1.046,41.838-7.766,58.547-22.376
			c22.8-19.935,31.384-45.985,31.394-75.425c0.046-143.495,0.021-286.991,0.021-430.486c0-1.911,0-3.823,0-5.736
			C1075.415,633.683,993.104,561.622,991.74,461z"/>
		<path d="M95.522,1340.167c10.209,0,19.872-0.187,29.513,0.185c1.595,0.062,3.785,2.264,4.536,3.985
			c11.24,25.761,22.283,51.608,33.383,77.43c0.5,1.164,1.107,2.281,2.019,4.145c0.947-1.914,1.631-3.148,2.186-4.438
			c10.981-25.517,22.032-51.004,32.821-76.601c1.539-3.652,3.33-4.964,7.311-4.814c8.947,0.337,17.916,0.106,27.206,0.106
			c0,45.028,0,89.561,0,134.383c-9.342,0-18.433,0-28.165,0c0-25.904,0-51.744,0-77.583c-0.384-0.075-0.768-0.15-1.152-0.225
			c-1.736,4.202-3.5,8.393-5.205,12.608c-8.292,20.505-16.638,40.99-24.772,61.558c-1.164,2.944-2.556,4.017-5.749,4.012
			c-12.872-0.021-12.88,0.095-17.857-11.96c-8.313-20.136-16.612-40.278-24.93-60.412c-0.607-1.469-1.322-2.894-2.726-4.181
			c0,25.213,0,50.426,0,76.055c-9.638,0-18.847,0-28.419,0C95.522,1429.846,95.522,1385.313,95.522,1340.167z"/>
		<path d="M1164.379,1474.829c-9.246,0-18.222,0.158-27.181-0.158c-1.461-0.052-3.285-1.928-4.204-3.416
			c-15.128-24.507-30.134-49.089-45.18-73.647c-1.272-2.076-2.627-4.101-4.843-5.967c0,27.502,0,55.004,0,82.848
			c-9.693,0-18.785,0-28.344,0c0-44.449,0-88.989,0-134.275c9.655,0,19.416-0.136,29.162,0.172c1.216,0.038,2.598,2.28,3.499,3.748
			c15.152,24.687,30.238,49.416,45.351,74.127c0.824,1.347,1.754,2.63,3.478,5.199c0-28.534,0-55.574,0-82.952
			c9.614,0,18.707,0,28.261,0C1164.379,1384.966,1164.379,1429.507,1164.379,1474.829z"/>
		<path d="M1545.432,1474.503c0-44.729,0-89.152,0-134.284c9.886,0,19.651-0.136,29.402,0.174c1.21,0.038,2.576,2.304,3.479,3.778
			c14.705,23.985,29.345,48.011,44.008,72.022c1.211,1.984,2.483,3.931,4.601,7.277c0-28.512,0-55.585,0-82.978
			c9.845,0,18.938,0,28.475,0c0,44.505,0,89.047,0,134.319c-9.225,0-18.494,0.164-27.743-0.178
			c-1.379-0.051-2.994-2.281-3.954-3.838c-15.021-24.377-29.949-48.811-44.909-73.226c-1.266-2.067-2.606-4.089-4.856-5.915
			c0,27.508,0,55.016,0,82.849C1564.243,1474.503,1555.15,1474.503,1545.432,1474.503z"/>
		<path d="M488.557,1426.841c-10.894,0-20.806,0-31.05,0c0-8.716,0-16.947,0-25.511c21.119,0,42.158,0,63.187,0
			c1.565,30.419-12.76,67.422-52.35,74.393c-35.675,6.282-68.447-15.191-76.2-50.663c-6.085-27.841,0.522-52.437,22.064-71.671
			c25.94-23.162,71.718-19.79,92.067,6.559c4.863,6.296,8.007,13.92,12.67,22.232c-11.47,0.703-21.043,1.356-30.626,1.764
			c-0.852,0.036-2.222-1.353-2.592-2.36c-7.205-19.612-43.262-23.993-57.524-1.848c-10.079,15.65-9.933,40.168,0.776,55.366
			c13.49,19.145,42.114,20.09,54.572,1.705C485.457,1433.992,486.649,1430.693,488.557,1426.841z"/>
		<path d="M1495.417,1419.914c10.154,18.163,20.182,36.103,30.687,54.894c-11.831,0-22.731,0.115-33.621-0.162
			c-1.212-0.031-2.745-2.1-3.489-3.551c-6.9-13.468-13.946-26.874-20.314-40.593c-2.481-5.345-5.522-7.786-11.302-6.691
			c-1.269,0.24-2.6,0.151-4.372,0.236c0,16.771,0,33.352,0,50.358c-10.024,0-19.584,0-29.578,0c0-44.346,0-88.876,0-133.582
			c0.052-0.047,0.298-0.46,0.54-0.458c19.303,0.145,38.653-0.453,57.894,0.72c18.676,1.139,32.576,13.987,35.959,30.846
			c3.864,19.258-4.957,39.927-21.072,46.987C1496.458,1419.045,1496.223,1419.304,1495.417,1419.914z M1453.083,1399.835
			c9.014-0.939,17.82-1.135,26.273-2.963c6.84-1.48,9.906-7.73,9.638-15.626c-0.237-6.973-3.485-12.259-10.316-13.514
			c-8.352-1.535-16.971-1.622-25.595-2.345C1453.083,1377.295,1453.083,1387.887,1453.083,1399.835z"/>
		<path d="M1307.39,1340.409c28.93,0,57.525,0,86.449,0c0,8.812,0,17.385,0,26.437c-18.784,0-37.533,0-56.64,0
			c0,8.854,0,17.241,0,26.227c18.238,0,36.462,0,54.991,0c0,9.18,0,17.77,0,26.897c-18.388,0-36.618,0-55.097,0
			c0,9.464,0,18.396,0,27.806c18.773,0,37.522,0,56.67,0c0,9.152,0,17.835,0,26.792c-28.79,0-57.387,0-86.374,0
			C1307.39,1429.968,1307.39,1385.415,1307.39,1340.409z"/>
		<path d="M1034.017,1474.833c-10.072,0-19.557,0.132-29.03-0.145c-1.383-0.041-3.411-1.763-3.94-3.162
			c-2.468-6.524-4.655-13.165-6.646-19.852c-0.847-2.843-2.091-3.961-5.198-3.915c-12.485,0.186-24.974,0.162-37.46,0.015
			c-2.979-0.035-4.398,0.797-5.225,3.823c-1.838,6.725-4.001,13.376-6.397,19.923c-0.511,1.396-2.552,3.125-3.934,3.166
			c-9.3,0.28-18.613,0.146-28.705,0.146c0.688-2.279,1.147-4.114,1.791-5.882c15.069-41.371,30.206-82.718,45.156-124.132
			c1.277-3.538,2.812-4.944,6.681-4.754c7.142,0.35,14.322-0.085,21.467,0.243c1.61,0.074,4.052,1.61,4.57,3.033
			c15.619,42.943,31.046,85.957,46.485,128.965C1033.841,1472.895,1033.83,1473.565,1034.017,1474.833z M956.303,1422.838
			c9.812,0,18.912,0,28.566,0c-4.714-14.432-9.327-28.555-14.339-43.901C965.591,1394.177,961.054,1408.178,956.303,1422.838z"/>
		<path d="M254.52,1474.836c0.601-2.051,0.97-3.629,1.52-5.14c15.178-41.686,30.409-83.352,45.5-125.069
			c1.18-3.261,2.59-4.73,6.295-4.56c7.311,0.334,14.653-0.058,21.968,0.23c1.496,0.059,3.785,1.472,4.262,2.785
			c15.703,43.265,31.229,86.594,46.768,129.919c0.103,0.288,0.013,0.647,0.013,1.836c-6.534,0-13.066,0-19.599,0
			c-12.335,0-12.291-0.014-16.076-11.512c-1.658-5.036-2.163-11.875-5.702-14.468c-3.519-2.578-10.188-0.95-15.477-0.999
			c-8.491-0.079-16.984,0.079-25.473-0.077c-2.785-0.051-4.108,0.781-4.899,3.58c-1.941,6.872-4.182,13.665-6.551,20.403
			c-0.433,1.232-1.937,2.203-3.143,2.996c-0.583,0.383-1.622,0.076-2.454,0.076C272.669,1474.836,263.867,1474.836,254.52,1474.836z
			 M331.879,1422.839c-4.712-14.411-9.323-28.515-14.355-43.907c-4.975,15.398-9.527,29.487-14.186,43.907
			C313.139,1422.839,322.235,1422.839,331.879,1422.839z"/>
		<path d="M727.218,1429.107c-6.973,22.744-19.636,39.626-42.869,45.376c-22.825,5.649-44.143,1.808-61.4-15.5
			c-11.461-11.496-16.124-26.189-17.489-42.004c-1.889-21.871,2.022-42.241,17.064-59.174c23.859-26.858,70.754-26.199,91.972,1.147
			c6.651,8.572,10.342,18.38,12.172,29.619c-10.004,0.638-19.557,1.246-29.248,1.864c-1.179-3.152-2.092-6.164-3.399-8.993
			c-8.243-17.846-31.472-22.126-45.618-8.426c-6.862,6.646-10.328,15.035-11.763,24.28c-1.766,11.372-1.189,22.597,3.341,33.352
			c5.22,12.392,15.809,19.681,28.82,19.279c13.033-0.403,21.799-7.371,26.553-19.271c1.237-3.095,2.745-3.894,5.885-3.583
			C709.673,1427.908,718.14,1428.42,727.218,1429.107z"/>
		<path d="M1251.08,1474.536c-10.213,0-19.779,0-29.871,0c0-35.865,0-71.436,0-107.478c-11.6,0-22.685,0-34.068,0
			c0-9.048,0-17.623,0-26.548c32.648,0,65.198,0,98.057,0c0,8.768,0,17.358,0,26.345c-11.278,0-22.377,0-34.117,0
			C1251.08,1402.939,1251.08,1438.637,1251.08,1474.536z"/>
		<path d="M813.172,1474.419c0-44.718,0-89.136,0-133.905c9.731,0,19.297,0,29.463,0c0,35.218,0,70.42,0,106.167
			c16.976,0,33.37,0,50.061,0c0,9.467,0,18.393,0,27.738C866.413,1474.419,840.059,1474.419,813.172,1474.419z"/>
		<path d="M577.516,1474.546c-9.834,0-19.396,0-29.237,0c0-44.758,0-89.291,0-134.104c9.791,0,19.354,0,29.237,0
			C577.516,1385.216,577.516,1429.736,577.516,1474.546z"/>
		<path fill="#FFFFFF" d="M991.74,461c1.364,100.622,83.675,172.683,172.096,171.457c0,1.914,0,3.825,0,5.736
			c0,143.495,0.025,286.991-0.021,430.486c-0.009,29.44-8.594,55.49-31.394,75.425c-16.709,14.609-36.588,21.329-58.547,22.376
			c-4.656,0.222-9.322,0.342-13.983,0.342c-270.158,0.016-540.316,0.013-810.474,0.017c-22.274,0-43.427-4.251-62.022-17.221
			c-24.605-17.161-37.111-41.121-37.142-70.935c-0.182-171.494-0.138-342.989-0.024-514.483
			c0.014-20.523,3.482-40.453,13.675-58.696c14.405-25.78,36.869-39.508,65.678-43.428c6.244-0.85,12.618-1.034,18.932-1.035
			C494.007,460.992,739.499,461,984.991,461C987.127,461,989.262,461,991.74,461z M687.058,1093.594c0-187.093,0-373.943,0-560.66
			c-63.509,0-126.568,0-189.748,0c-10.97,85.654-21.887,170.89-32.803,256.126c-0.427-0.015-0.854-0.029-1.281-0.044
			c-12.228-85.415-24.457-170.829-36.681-256.212c-63.695,0-126.455,0-189.244,0c0,187.06,0,373.809,0,560.716
			c42.533,0,84.764,0,127.61,0c0-121.12,0-241.924,0-362.729c0.289-0.012,0.577-0.023,0.866-0.035
			c17.487,120.864,34.973,241.728,52.478,362.714c30.427,0,60.469,0,90.735,0c16.448-122.697,32.851-245.065,49.255-367.432
			c0.469,0.02,0.938,0.04,1.407,0.06c0,122.443,0,244.886,0,367.496C602.679,1093.594,644.77,1093.594,687.058,1093.594z
			 M755.276,532.787c0,187.039,0,373.785,0,560.759c108.507,0,216.737,0,325.206,0c0-37.5,0-74.708,0-112.564
			c-59.89,0-119.429,0-179.396,0c0-149.743,0-298.839,0-448.195C852.23,532.787,803.809,532.787,755.276,532.787z"/>
		<path fill="#FFFFFF" d="M1453.083,1399.835c0-11.948,0-22.54,0-34.449c8.625,0.723,17.243,0.811,25.595,2.345
			c6.83,1.255,10.079,6.54,10.316,13.514c0.268,7.896-2.798,14.146-9.638,15.626
			C1470.903,1398.7,1462.096,1398.896,1453.083,1399.835z"/>
		<path fill="#FFFFFF" d="M956.303,1422.838c4.751-14.66,9.288-28.66,14.227-43.901c5.012,15.346,9.625,29.469,14.339,43.901
			C975.215,1422.838,966.115,1422.838,956.303,1422.838z"/>
		<path fill="#FFFFFF" d="M331.879,1422.839c-9.644,0-18.739,0-28.541,0c4.659-14.42,9.211-28.508,14.186-43.907
			C322.556,1394.324,327.167,1408.427,331.879,1422.839z"/>
		<path d="M687.058,1093.594c-42.288,0-84.379,0-127.407,0c0-122.61,0-245.053,0-367.496c-0.469-0.02-0.938-0.04-1.407-0.06
			c-16.403,122.367-32.807,244.735-49.255,367.432c-30.266,0-60.307,0-90.735,0c-17.504-120.986-34.991-241.85-52.478-362.714
			c-0.289,0.012-0.577,0.023-0.866,0.035c0,120.805,0,241.61,0,362.729c-42.846,0-85.077,0-127.61,0c0-186.907,0-373.656,0-560.716
			c62.788,0,125.549,0,189.244,0c12.224,85.383,24.452,170.797,36.681,256.212c0.427,0.015,0.854,0.029,1.281,0.044
			c10.917-85.236,21.833-170.472,32.803-256.126c63.18,0,126.239,0,189.748,0C687.058,719.651,687.058,906.501,687.058,1093.594z"/>
		<path d="M755.276,532.787c48.533,0,96.954,0,145.81,0c0,149.356,0,298.452,0,448.195c59.967,0,119.506,0,179.396,0
			c0,37.855,0,75.064,0,112.564c-108.469,0-216.7,0-325.206,0C755.276,906.572,755.276,719.827,755.276,532.787z"/>
	</g>
</g>
<circle fill="#FF0000" cx="1164.213" cy="461.164" r="81.568"/>
</svg>
